<svg width="838" height="436" viewBox="0 0 838 436" fill="none" xmlns="http://www.w3.org/2000/svg">
<g clip-path="url(#clip0_1101_25062)">
<path opacity="0.06" d="M502.22 333.49C502.5 354.69 465.51 367.3 420.65 369.89C411.76 369.8 405.23 369.89 399.8 367.67C396.628 366.362 393.231 365.683 389.8 365.67C380.07 365.67 311.47 363.84 302.22 363.24C222.73 358.13 221.22 350.64 221.03 334.48C220.86 321.43 355.97 309.85 375.14 309.6C443.79 308.66 501.95 312.3 502.22 333.49Z" fill="#4A4A4A"/>
<path d="M429.93 360.54C429.93 365.07 425.69 368.75 420.47 368.75C415.25 368.75 411 365.07 411 360.54" fill="#DEDEDE"/>
<path d="M429.93 360.54C429.93 365.07 425.69 368.75 420.47 368.75C415.25 368.75 411 365.07 411 360.54" stroke="#4A4A4A" stroke-width="2" stroke-linecap="round" stroke-linejoin="round"/>
<path d="M360.9 352.17C359.994 353.489 358.773 354.561 357.348 355.289C355.923 356.017 354.34 356.378 352.74 356.34C347.6 356.34 343.42 352.72 343.42 348.26C343.436 346.402 344.15 344.617 345.42 343.26" fill="#DEDEDE"/>
<path d="M360.9 352.17C359.994 353.489 358.773 354.561 357.348 355.289C355.923 356.017 354.34 356.378 352.74 356.34C347.6 356.34 343.42 352.72 343.42 348.26C343.436 346.402 344.15 344.617 345.42 343.26" stroke="#4A4A4A" stroke-width="2" stroke-linecap="round" stroke-linejoin="round"/>
<path d="M342.04 290.62C342.04 290.62 333.73 330.8 342.04 339.42C369.15 367.58 468.3 367.58 495.41 339.42C503.82 330.69 495.41 290.01 495.41 290.01L482.16 253.86L350.93 257.86L342.04 290.62Z" fill="#F7F7F7"/>
<path d="M480.44 225.17C495.87 226.62 502.44 330.8 494.14 339.42C480.67 353.42 449.44 360.42 418.14 360.54C386.78 360.44 355.55 353.41 342.09 339.42C333.78 330.8 340.35 226.62 355.79 225.17" fill="white"/>
<path d="M494.14 339.42C480.67 353.42 449.44 360.42 418.14 360.54C386.78 360.44 355.55 353.41 342.09 339.42C334.27 331.31 339.62 238.77 353.09 226.5" stroke="#4A4A4A" stroke-width="2" stroke-linecap="round" stroke-linejoin="round"/>
<path d="M480.44 225.17C489.53 226.02 495.55 262.55 497.26 294.17" stroke="#4A4A4A" stroke-width="2" stroke-linecap="round" stroke-linejoin="round"/>
<path d="M363.88 205.23C364.738 204.496 365.716 203.915 366.77 203.51V203.51C375.33 199.51 395.58 196.72 419.2 196.72C442.82 196.72 462.9 199.5 471.52 203.46H471.63C472.696 203.868 473.684 204.457 474.55 205.2" stroke="#DEDEDE" stroke-width="2" stroke-linecap="round" stroke-linejoin="round"/>
<path d="M424.46 200.63L435.78 196.72L438.71 194.07C438.916 193.885 439.179 193.775 439.456 193.76C439.733 193.744 440.006 193.823 440.232 193.984C440.458 194.144 440.623 194.377 440.698 194.644C440.774 194.91 440.757 195.195 440.65 195.45L439.1 199.04L434.36 202.64" fill="#ECECEC"/>
<path d="M401.2 216.36L404.04 202.64" stroke="#DEDEDE" stroke-width="2" stroke-linecap="round" stroke-linejoin="round"/>
<path d="M434.36 202.64L437.2 216.36" stroke="#DEDEDE" stroke-width="2" stroke-linecap="round" stroke-linejoin="round"/>
<path d="M419.2 204.66C427.573 204.66 434.36 203.756 434.36 202.64C434.36 201.524 427.573 200.62 419.2 200.62C410.827 200.62 404.04 201.524 404.04 202.64C404.04 203.756 410.827 204.66 419.2 204.66Z" fill="#F7F7F7"/>
<path d="M419.2 204.66C427.573 204.66 434.36 203.756 434.36 202.64C434.36 201.524 427.573 200.62 419.2 200.62C410.827 200.62 404.04 201.524 404.04 202.64C404.04 203.756 410.827 204.66 419.2 204.66Z" stroke="#DEDEDE" stroke-width="2" stroke-linecap="round" stroke-linejoin="round"/>
<path d="M419.2 204.66L403.47 198.49L400.54 195.86C400.334 195.675 400.071 195.565 399.794 195.55C399.517 195.534 399.244 195.613 399.018 195.774C398.792 195.934 398.627 196.167 398.552 196.433C398.476 196.7 398.493 196.984 398.6 197.24L400.15 200.86L404.89 203.57" fill="#ECECEC"/>
<path d="M424.46 200.63L435.78 196.72L438.24 194.49C438.471 194.287 438.765 194.169 439.072 194.154C439.379 194.14 439.682 194.23 439.932 194.41C440.181 194.589 440.362 194.849 440.446 195.145C440.529 195.441 440.509 195.756 440.39 196.04L439.1 199.04L434.36 202.64" stroke="#DEDEDE" stroke-width="2" stroke-linecap="round" stroke-linejoin="round"/>
<path d="M404.89 203.52L400.15 200.86L398.85 197.86C398.726 197.575 398.704 197.256 398.787 196.957C398.869 196.657 399.052 196.395 399.305 196.214C399.557 196.032 399.864 195.943 400.174 195.961C400.485 195.978 400.78 196.102 401.01 196.31L403.47 198.54L419.2 204.71C419.2 204.71 409.83 204.66 404.89 203.52Z" stroke="#DEDEDE" stroke-width="2" stroke-linecap="round" stroke-linejoin="round"/>
<path d="M445.81 84.64L481.72 75.27C489.48 73.27 497.05 79.27 497.52 87.78C497.52 87.78 499.09 120.89 501.1 153.61C497.85 162.61 476.38 170.93 471.63 151.56L474.14 107.65L453.14 114.13C445.07 116.62 441.69 110.02 440.14 101.13C438.73 93.2 442.76 85.96 445.81 84.64Z" fill="white"/>
<path opacity="0.04" d="M474.22 77.22C474.22 77.22 492.65 74.86 492.28 93.44L494.55 135.12C495.2 146.9 479.55 150.32 476.06 139.12C474.834 134.913 474.214 130.552 474.22 126.17L471.65 151.56C471.65 151.56 482.97 177.64 501.12 153.61L496.12 83.51C496.12 83.51 497.71 70.94 474.22 77.22Z" fill="#4A4A4A"/>
<path d="M451.09 114.31C456.751 114.31 461.34 107.415 461.34 98.91C461.34 90.4048 456.751 83.51 451.09 83.51C445.429 83.51 440.84 90.4048 440.84 98.91C440.84 107.415 445.429 114.31 451.09 114.31Z" fill="#ECECEC"/>
<path d="M461.33 98.91C461.333 100.429 461.179 101.943 460.87 103.43" stroke="#DEDEDE" stroke-width="2" stroke-linecap="round" stroke-linejoin="round"/>
<path d="M450.73 114.32C444.87 114.32 440.12 107.42 440.12 98.91C440.12 90.4 444.87 83.51 450.73 83.51C453.66 83.51 456.31 85.23 458.23 88.02" stroke="#DEDEDE" stroke-width="2" stroke-linecap="round" stroke-linejoin="round"/>
<path d="M454.48 113.52L480.41 105.79" stroke="#DEDEDE" stroke-width="2" stroke-linecap="round" stroke-linejoin="round"/>
<path d="M491.86 77.22C490.637 76.2971 489.249 75.6181 487.77 75.22C485.631 74.6879 483.391 74.7224 481.27 75.32L448.86 83.71" stroke="#DEDEDE" stroke-width="2" stroke-linecap="round" stroke-linejoin="round"/>
<path d="M489.72 162.35C496.24 161.21 501.1 156.81 501.1 151.56L496.97 88.67C496.58 82.67 494.49 79.22 491.86 77.22" stroke="#4A4A4A" stroke-width="2" stroke-linecap="round" stroke-linejoin="round"/>
<path d="M474.27 111.33L471.65 151.56C471.65 157.42 477.65 162.22 485.36 162.61" stroke="#DEDEDE" stroke-width="2" stroke-linecap="round" stroke-linejoin="round"/>
<path opacity="0.8" d="M355.75 117.39C357.66 149.39 362.37 188.84 373.82 200.59C389.59 211.96 445.94 210.51 464.57 200.59C476.27 188.59 480.93 147.83 482.77 116.07L468.77 116.85C468.77 116.85 450.77 111.85 441.14 120.85C441.14 120.85 425.14 138.39 381.87 129.13C381.88 129.17 360.29 122.19 355.75 117.39Z" fill="#FF0083"/>
<path opacity="0.38" fill-rule="evenodd" clip-rule="evenodd" d="M424.49 148.12C424.49 148.581 424.353 149.031 424.097 149.415C423.841 149.798 423.477 150.096 423.052 150.273C422.626 150.449 422.157 150.495 421.705 150.405C421.254 150.315 420.838 150.093 420.512 149.768C420.187 149.442 419.965 149.027 419.875 148.575C419.785 148.123 419.831 147.654 420.007 147.228C420.184 146.803 420.482 146.439 420.866 146.183C421.249 145.927 421.699 145.79 422.16 145.79C422.778 145.79 423.371 146.036 423.808 146.472C424.245 146.909 424.49 147.502 424.49 148.12V148.12Z" fill="white"/>
<path opacity="0.38" fill-rule="evenodd" clip-rule="evenodd" d="M453.65 171.86C453.65 172.321 453.513 172.771 453.257 173.155C453.001 173.538 452.637 173.836 452.212 174.013C451.786 174.189 451.317 174.235 450.865 174.145C450.413 174.055 449.998 173.833 449.672 173.508C449.347 173.182 449.125 172.767 449.035 172.315C448.945 171.863 448.991 171.394 449.167 170.968C449.344 170.543 449.642 170.179 450.026 169.923C450.409 169.667 450.859 169.53 451.32 169.53C451.626 169.53 451.929 169.59 452.212 169.707C452.494 169.824 452.751 169.996 452.968 170.212C453.184 170.429 453.356 170.686 453.473 170.968C453.59 171.251 453.65 171.554 453.65 171.86V171.86Z" fill="white"/>
<path opacity="0.38" fill-rule="evenodd" clip-rule="evenodd" d="M390.35 179.48C390.35 180.202 390.136 180.908 389.735 181.508C389.334 182.108 388.764 182.576 388.097 182.852C387.43 183.128 386.696 183.201 385.988 183.06C385.28 182.919 384.63 182.571 384.119 182.061C383.609 181.55 383.261 180.9 383.12 180.192C382.979 179.484 383.052 178.75 383.328 178.083C383.604 177.416 384.072 176.846 384.672 176.445C385.272 176.044 385.978 175.83 386.7 175.83C387.668 175.83 388.596 176.215 389.281 176.899C389.965 177.584 390.35 178.512 390.35 179.48Z" fill="white"/>
<path opacity="0.38" fill-rule="evenodd" clip-rule="evenodd" d="M454.56 145.08C454.56 145.4 454.465 145.714 454.287 145.98C454.109 146.246 453.856 146.454 453.56 146.577C453.264 146.699 452.938 146.731 452.624 146.669C452.31 146.606 452.021 146.452 451.794 146.225C451.568 145.999 451.413 145.71 451.351 145.396C451.288 145.082 451.321 144.756 451.443 144.46C451.566 144.164 451.773 143.911 452.04 143.733C452.306 143.555 452.619 143.46 452.94 143.46C453.369 143.46 453.782 143.631 454.085 143.934C454.389 144.238 454.56 144.65 454.56 145.08V145.08Z" fill="white"/>
<path d="M482.16 114.51C480.32 146.26 476.27 188.58 464.57 200.59C446.5 211.35 390.57 211.75 373.82 200.59C362.37 188.84 357.2 146.47 355.28 114.51" stroke="#DC0071" stroke-width="2" stroke-linecap="round" stroke-linejoin="round"/>
<path opacity="0.9" d="M482.16 114.51C482.16 119.37 462.89 114.51 451.38 115.95C441.83 117.15 432.53 131.95 411.31 131.95C376.31 131.95 355.31 121.95 355.31 114.55C355.31 109.98 367.14 114.8 383.79 112.4C393.99 110.92 399.73 101.21 418.79 101.21C453.76 101.17 482.16 107.14 482.16 114.51Z" fill="#DC0071"/>
<path d="M360.56 121.35C357.11 119.05 355.28 116.66 355.28 114.51C355.28 109.94 367.11 114.76 383.76 112.36C393.96 110.88 399.7 101.17 418.76 101.17C453.76 101.17 482.2 107.17 482.2 114.51C482.2 119.37 462.93 114.51 451.42 115.95C443.54 116.95 438.69 125.37 423.17 129.81C417.283 131.445 411.174 132.137 405.07 131.86C383.71 131.05 368.21 126.41 360.6 121.35" stroke="#DC0071" stroke-width="2" stroke-linecap="round" stroke-linejoin="round"/>
<path opacity="0.25" d="M384.34 72.05C376.012 71.4614 367.723 70.4131 359.51 68.91V68.91L369.27 156.18L378.4 218.56L377.91 215.2C392.6 218.77 409.1 220 426.78 218.8L408.65 72.5301L384.34 72.05Z" fill="white"/>
<path opacity="0.25" d="M492.28 63.51C492.28 63.51 484.03 69.99 458.83 72.3L475.07 203.47C488.54 173.38 491.65 88.86 492.28 63.51Z" fill="white"/>
<path d="M350.13 66.79L351.3 82.86C351.3 88 381.7 92.17 419.2 92.17C456.7 92.17 487.1 88 487.1 82.86L488.27 66.77C488.27 66.77 453.12 75.24 419.2 73.51C419.2 73.53 379.5 74.01 350.13 66.79Z" fill="#F7F7F7"/>
<path d="M487.54 67.0701L487.1 83.1701C487.1 88.3101 456.7 92.4701 419.2 92.4701C381.7 92.4701 351.3 88.3101 351.3 83.1701L350.93 71.1701" stroke="#DEDEDE" stroke-width="2" stroke-linecap="round" stroke-linejoin="round"/>
<path d="M356.25 72.64C356.25 72.64 358.16 78.1 360.54 79.08C369.27 80.66 379.73 73.33 386.67 72.25" stroke="#4A4A4A" stroke-width="2" stroke-linecap="round" stroke-linejoin="round"/>
<path d="M369.27 150.84L360.54 79.0801" stroke="#4A4A4A" stroke-width="2" stroke-linecap="round" stroke-linejoin="round"/>
<path d="M367.33 213.27L363.88 205.27C360.88 207.69 356.51 213.27 355.74 225.21C355.647 226.388 355.878 227.57 356.406 228.627C356.935 229.684 357.742 230.577 358.74 231.21C366.99 236.26 390.32 240.14 419.16 240.14C448.43 240.14 471.78 236.24 479.82 231.03C480.756 230.396 481.508 229.525 482 228.507C482.492 227.488 482.705 226.358 482.62 225.23C481.85 213.29 477.51 207.76 474.51 205.33C474.51 205.33 471.66 211.21 467.81 212.93C439.17 219.25 423.37 222.64 367.33 213.27Z" fill="#F7F7F7"/>
<path d="M370.02 213.08C369.317 212.451 368.649 211.783 368.02 211.08C347.33 188.46 346.17 60.0801 346.17 60.0801" stroke="#4A4A4A" stroke-width="2" stroke-linecap="round" stroke-linejoin="round"/>
<path d="M492.2 70.53C491.72 93.36 488.78 183.83 472.47 208.43" stroke="#4A4A4A" stroke-width="2" stroke-linecap="round" stroke-linejoin="round"/>
<path d="M492.28 53.49V63.49C492.28 69.03 459.56 73.49 419.2 73.49C378.84 73.49 346.13 69.01 346.13 63.49V53.49" fill="#ECECEC"/>
<path d="M419.2 63.52C459.555 63.52 492.27 59.0339 492.27 53.5C492.27 47.9661 459.555 43.48 419.2 43.48C378.844 43.48 346.13 47.9661 346.13 53.5C346.13 59.0339 378.844 63.52 419.2 63.52Z" fill="#F7F7F7"/>
<path d="M396.37 73C371.2 71.79 352.37 68.67 347.37 65.13C346.964 64.8134 346.639 64.4058 346.42 63.9403C346.201 63.4747 346.095 62.9642 346.11 62.45V55.09C346.094 54.3948 346.257 53.7071 346.583 53.0927C346.908 52.4782 347.386 51.9574 347.97 51.58C355.43 47.14 383.82 43.48 419.18 43.48" stroke="#4A4A4A" stroke-width="2" stroke-linecap="round" stroke-linejoin="round"/>
<path d="M453.32 44.5601C472.09 45.8801 485.76 48.31 490.51 51.47C491.065 51.8557 491.517 52.3721 491.826 52.9738C492.135 53.5755 492.291 54.2439 492.28 54.92V62.16C492.292 62.7984 492.144 63.4297 491.849 63.9959C491.553 64.562 491.121 65.0449 490.59 65.4001C483.44 69.8401 454.59 73.5301 419.2 73.5301C411.2 73.5301 403.52 73.3401 396.37 73.0001" stroke="#4A4A4A" stroke-width="2" stroke-linecap="round" stroke-linejoin="round"/>
<path d="M407.96 63.39C388.6 62.98 371.74 61.53 360.54 59.47" stroke="#4A4A4A" stroke-width="2" stroke-linecap="round" stroke-linejoin="round"/>
<path d="M419.2 63.51C415.38 63.51 411.633 63.47 407.96 63.39" stroke="#4A4A4A" stroke-width="2" stroke-linecap="round" stroke-linejoin="round"/>
<path d="M458.52 61.9399L454.52 62.27" stroke="#4A4A4A" stroke-width="2" stroke-linecap="round" stroke-linejoin="round"/>
<path d="M393.41 31.6C392.61 31.8886 391.905 32.394 391.376 33.0597C390.846 33.7254 390.512 34.5253 390.41 35.37C389.75 40 389.82 46.23 390.83 49.75C390.83 51.9 403.54 53.64 419.21 53.64C434.88 53.64 447.59 51.9 447.59 49.75C448.348 45.0552 448.489 40.2814 448.01 35.55C447.93 34.678 447.606 33.8463 447.075 33.1496C446.545 32.4529 445.829 31.9194 445.01 31.61C440.59 30.1 431.36 29.22 419.25 29.22C407.27 29.22 397.83 30.14 393.41 31.6Z" fill="#ECECEC"/>
<path d="M448.14 33.08C448.14 35.24 435.29 37 419.44 37C403.59 37 390.74 35.24 390.74 33.08C390.74 30.92 393.81 28.68 419.44 29.16C441.82 28.4 448.14 30.91 448.14 33.08Z" fill="#F7F7F7"/>
<path d="M404.28 36.42C402.84 36.3 401.48 36.16 400.28 36" stroke="#4A4A4A" stroke-width="2" stroke-linecap="round" stroke-linejoin="round"/>
<path d="M438.06 36.02C431.798 36.7176 425.501 37.0515 419.2 37.02C415.7 37.02 412.34 36.93 409.2 36.77" stroke="#4A4A4A" stroke-width="2" stroke-linecap="round" stroke-linejoin="round"/>
<path d="M393.4 31.6C392.6 31.8841 391.896 32.3856 391.366 33.0481C390.836 33.7105 390.502 34.5077 390.4 35.35C389.854 39.2721 389.817 43.2484 390.29 47.18C390.81 49.75 391.96 50.8 393.78 51.33C398.36 52.66 407.72 53.64 419.19 53.64C430.34 53.64 439.6 52.64 444.3 51.34C445.302 51.0465 446.19 50.4549 446.848 49.6439C447.505 48.8329 447.9 47.8409 447.98 46.8C448.35 43.0558 448.35 39.2842 447.98 35.54C447.9 34.6701 447.577 33.8405 447.046 33.1469C446.515 32.4532 445.799 31.9239 444.98 31.62C440.56 30.1 431.33 29.22 419.21 29.22C407.25 29.22 397.81 30.14 393.4 31.6Z" stroke="#4A4A4A" stroke-width="2" stroke-linecap="round" stroke-linejoin="round"/>
<path opacity="0.08" d="M465.65 214.18C467.75 212.48 468.27 212.69 470.11 210.51C476.67 202.73 482.8 189.51 483.47 173.89C483.47 173.89 497 67.27 492.24 62.16C492.24 62.16 491.91 75.93 397.24 73.07L384.24 72.07C384.24 72.07 370.03 79.86 360.44 79.07L367.89 140.33L370.65 100.75C370.842 96.9941 372.054 93.3615 374.156 90.2428C376.258 87.1242 379.171 84.6375 382.58 83.05L385.86 81.6C388.51 80.4208 391.405 79.896 394.3 80.07C405.5 80.74 437 81.9801 469.08 77.4001C475.68 76.4601 475.64 80.95 475.59 88.08C475.36 118.88 475.1 193.53 441.26 217.89L465.65 214.18Z" fill="#4A4A4A"/>
<path opacity="0.04" d="M413.58 53.49C413.58 53.49 440.49 57.07 454.58 51.88C455.316 51.5907 456.071 51.3534 456.84 51.17C468.95 48.68 487.44 56.85 471.6 60.47C467.82 61.34 467.93 68.73 471.6 70.01L476.36 69.31C476.36 69.31 490.12 68.21 492.25 63.51L490.48 51.51C490.48 51.51 464.37 43.51 447.69 44.6V49C447.69 49 440.79 55.25 413.58 53.49Z" fill="#4A4A4A"/>
<path opacity="0.04" d="M414.85 29.26L424.46 34.26C425.972 35.0831 427.235 36.2986 428.115 37.7785C428.995 39.2585 429.459 40.9482 429.46 42.67L429.6 52.45C429.6 52.45 447.46 54.89 447.6 49.71C447.6 49.71 450.25 34.26 446.68 32.65C446.65 32.69 433.76 28.48 414.85 29.26Z" fill="#4A4A4A"/>
<path d="M473.83 210.77C467.07 215.4 445.17 218.77 419.2 218.77C393.64 218.77 372.03 215.49 364.91 210.97" stroke="#4A4A4A" stroke-width="2" stroke-linecap="round" stroke-linejoin="round"/>
<path d="M383.26 237.78C371.8 236.16 363.16 233.78 358.78 231.13C357.782 230.497 356.975 229.604 356.446 228.547C355.918 227.49 355.687 226.308 355.78 225.13C356.55 213.13 360.91 207.61 363.92 205.19" stroke="#4A4A4A" stroke-width="2" stroke-linecap="round" stroke-linejoin="round"/>
<path d="M396.94 239.24C395.85 239.16 394.77 239.07 393.72 238.97" stroke="#4A4A4A" stroke-width="2" stroke-linecap="round" stroke-linejoin="round"/>
<path d="M474.55 205.25C477.55 207.68 481.89 213.25 482.66 225.15C482.746 226.278 482.532 227.408 482.04 228.427C481.548 229.445 480.796 230.316 479.86 230.95C471.86 236.16 448.47 240.06 419.2 240.06C415.2 240.06 411.31 239.98 407.56 239.84" stroke="#4A4A4A" stroke-width="2" stroke-linecap="round" stroke-linejoin="round"/>
<path d="M417.35 267.06V269.87" stroke="#E6E6E6" stroke-width="3" stroke-linecap="round" stroke-linejoin="round"/>
<path d="M451.37 287.97L449.08 289.38" stroke="#E6E6E6" stroke-width="3" stroke-linecap="round" stroke-linejoin="round"/>
<path d="M442.6 276.84L440.9 279" stroke="#FF0083" stroke-width="3" stroke-linecap="round" stroke-linejoin="round"/>
<path d="M430.79 269.58L429.88 272.22" stroke="#E6E6E6" stroke-width="3" stroke-linecap="round" stroke-linejoin="round"/>
<path opacity="0.06" d="M414.93 329.14C428.306 329.14 439.15 318.296 439.15 304.92C439.15 291.544 428.306 280.7 414.93 280.7C401.554 280.7 390.71 291.544 390.71 304.92C390.71 318.296 401.554 329.14 414.93 329.14Z" fill="#4A4A4A"/>
<path d="M418.75 324.49C430.447 324.49 439.93 315.007 439.93 303.31C439.93 291.613 430.447 282.13 418.75 282.13C407.053 282.13 397.57 291.613 397.57 303.31C397.57 315.007 407.053 324.49 418.75 324.49Z" fill="#F7F7F7"/>
<path d="M418.75 323.89C428.669 323.89 436.71 315.849 436.71 305.93C436.71 296.011 428.669 287.97 418.75 287.97C408.831 287.97 400.79 296.011 400.79 305.93C400.79 315.849 408.831 323.89 418.75 323.89Z" fill="white"/>
<path d="M403.65 318.16C399.841 314.287 397.666 309.099 397.574 303.668C397.482 298.236 399.48 292.977 403.156 288.978C406.831 284.978 411.903 282.543 417.323 282.177C422.742 281.811 428.095 283.541 432.276 287.01C436.456 290.478 439.144 295.421 439.783 300.815C440.423 306.209 438.966 311.643 435.713 315.993C432.46 320.343 427.659 323.277 422.304 324.189C416.949 325.1 411.449 323.919 406.94 320.89" stroke="#4A4A4A" stroke-width="2" stroke-linecap="round" stroke-linejoin="round"/>
<path opacity="0.06" d="M358.07 213.67C358.07 213.67 391.31 234.02 467.7 218.91C469.251 218.595 470.864 218.82 472.27 219.548C473.676 220.275 474.791 221.462 475.43 222.91C476.87 226.29 477.59 230.68 473.83 233.7C473.83 233.7 484.43 232.01 482.68 223.7C482.68 223.7 480.95 208.35 474.55 205.26L472.47 208.77C472.47 208.77 472.72 212.31 465.6 213.36C450.44 219.48 385.36 221.36 369.27 212.36C366.21 210.5 364.91 207.66 363.88 205.27C363.88 205.23 359.44 209.14 358.07 213.67Z" fill="#4A4A4A"/>
<path d="M429.93 360.54C429.93 365.07 425.69 368.75 420.47 368.75C415.25 368.75 411 365.07 411 360.54" stroke="#4A4A4A" stroke-width="2" stroke-linecap="round" stroke-linejoin="round"/>
<path d="M360.9 352.17C359.994 353.489 358.773 354.561 357.348 355.289C355.923 356.017 354.34 356.378 352.74 356.34C347.6 356.34 343.42 352.72 343.42 348.26C343.436 346.402 344.15 344.617 345.42 343.26" stroke="#4A4A4A" stroke-width="2" stroke-linecap="round" stroke-linejoin="round"/>
<path opacity="0.06" d="M417.65 360.54C417.65 360.54 424.99 364.2 422.65 368.75C422.65 368.75 430.74 366.57 430.01 360.54H417.65Z" fill="#4A4A4A"/>
<path opacity="0.06" d="M343.77 346.06L350.86 350.77C351.789 351.375 352.514 352.246 352.94 353.27C353.53 354.68 354.04 356.47 352.74 356.34C352.74 356.34 362.5 355.15 359.24 351.21L346.52 343.97C346.52 343.97 345.39 343.05 343.77 346.06Z" fill="#4A4A4A"/>
<path opacity="0.04" d="M348.72 233.71C356.79 254.42 429.72 252.42 466.21 246.71C470.084 246.096 474.045 247.024 477.243 249.295C480.442 251.566 482.623 255 483.32 258.86C487.01 279.01 492.58 313.66 489.72 325.63C489.72 325.63 438.6 369.63 367.54 353.22C367.54 353.22 450.73 375.76 494.14 339.47C494.14 339.47 501.64 317.88 496.4 282.01C496.4 282.01 491.97 230.11 482.66 225.2C482.66 225.2 488.43 239.3 419.2 240.11C419.2 240.11 352.2 239.55 355.74 225.22C355.74 225.17 350.93 226.62 348.72 233.71Z" fill="#4A4A4A"/>
<path d="M426.4 290.02C428.8 291.412 430.779 293.427 432.13 295.85" stroke="#4A4A4A" stroke-width="2" stroke-linecap="round" stroke-linejoin="round"/>
<path d="M413.8 288.77C415.386 288.238 417.047 287.968 418.72 287.97" stroke="#4A4A4A" stroke-width="2" stroke-linecap="round" stroke-linejoin="round"/>
<path opacity="0.06" d="M280.38 352.77C280.84 356.65 278.92 360.93 274.85 365.09C272.069 367.892 268.334 369.545 264.39 369.72C256.915 370.187 249.824 373.193 244.29 378.24C242.097 380.423 239.318 381.924 236.29 382.56C230.857 383.633 225.369 384.401 219.85 384.86C209.62 386.08 200.25 386.43 189.42 383.92C186.917 383.323 184.339 383.1 181.77 383.26C76.47 390.07 33.77 369.14 33.77 348.44C33.77 325.51 89.89 306.92 159.12 306.92C228.35 306.92 280.38 329.86 280.38 352.77Z" fill="#4A4A4A"/>
<path d="M103.86 344.37H120.91V362.16C120.91 364.422 120.011 366.592 118.412 368.192C116.812 369.791 114.642 370.69 112.38 370.69C110.118 370.69 107.948 369.791 106.348 368.192C104.749 366.592 103.85 364.422 103.85 362.16V344.37H103.86Z" fill="#DEDEDE" stroke="#4A4A4A" stroke-width="2" stroke-linecap="round" stroke-linejoin="round"/>
<path opacity="0.06" d="M104.39 363.2C107.562 364.479 110.861 365.421 114.23 366.01C114.78 368.43 112.31 370.31 112.31 370.31C112.31 370.31 118.77 372.09 120.75 363.63C122.73 355.17 107.98 351.91 107.98 351.91L103.8 358.04L104.39 363.2Z" fill="#4A4A4A"/>
<path d="M209.65 356.86H226.72V374.66C226.72 375.776 226.499 376.88 226.07 377.91C225.639 378.942 225.01 379.879 224.22 380.67C223.429 381.463 222.487 382.089 221.45 382.51C220.155 383.047 218.748 383.257 217.353 383.122C215.958 382.986 214.618 382.508 213.451 381.731C212.284 380.954 211.327 379.901 210.664 378.666C210.001 377.431 209.653 376.052 209.65 374.65V356.86V356.86Z" fill="#DEDEDE" stroke="#4A4A4A" stroke-width="2" stroke-linecap="round" stroke-linejoin="round"/>
<path d="M157.54 322.3H174.65V340.09C174.647 341.492 174.299 342.871 173.636 344.106C172.973 345.341 172.015 346.394 170.849 347.171C169.682 347.948 168.342 348.426 166.947 348.561C165.552 348.697 164.145 348.487 162.85 347.95C161.293 347.308 159.962 346.218 159.026 344.819C158.089 343.42 157.59 341.774 157.59 340.09L157.54 322.3Z" fill="#DEDEDE" stroke="#4A4A4A" stroke-width="2" stroke-linecap="round" stroke-linejoin="round"/>
<path opacity="0.06" d="M209.54 375.71C212.717 376.985 216.018 377.923 219.39 378.51C219.94 380.93 217.47 382.81 217.47 382.81C217.47 382.81 223.93 384.58 225.91 376.12C227.89 367.66 213.13 364.37 213.13 364.37L208.95 370.51L209.54 375.71Z" fill="#4A4A4A"/>
<path d="M263.32 334.77H280.38V352.57C280.38 354.832 279.481 357.002 277.882 358.602C276.282 360.201 274.112 361.1 271.85 361.1C269.588 361.1 267.418 360.201 265.818 358.602C264.219 357.002 263.32 354.832 263.32 352.57V334.77Z" fill="#DEDEDE" stroke="#4A4A4A" stroke-width="2" stroke-linecap="round" stroke-linejoin="round"/>
<path opacity="0.06" d="M263.34 353.14C266.512 354.419 269.81 355.361 273.18 355.95C273.72 358.36 271.26 360.24 271.26 360.24C271.26 360.24 277.72 362.01 279.7 353.56C281.68 345.11 266.92 341.8 266.92 341.8L262.74 347.94L263.34 353.14Z" fill="#4A4A4A"/>
<path d="M266.27 239.69C255.12 227.86 231.65 222.39 208.14 219.04H207.9H207.67C190.81 216.68 173.99 215.42 161.67 218.04C141.91 221.87 113.9 236.25 98.93 249.95C96.29 252.36 108.71 262.56 108.71 262.56L131.47 294.26C131.93 304.37 133.93 313.26 137.95 319.26C143.62 327.7 175.31 336.17 208.23 341.17L230.31 372.63C230.31 372.63 255.96 364.04 271.52 353.91C276.73 350.37 281.82 347.28 284.52 344.46C290.38 338.74 289.67 332.26 286.95 328.51C290.65 300.65 280.76 255.08 266.27 239.69Z" fill="white"/>
<path opacity="0.04" d="M222.24 227.09C222.24 227.09 257.61 233.24 266.82 253.93C266.82 253.93 280.29 282.93 280.71 314.48C280.746 317.274 280.185 320.043 279.064 322.603C277.943 325.162 276.288 327.452 274.21 329.32L252.78 348.6C252.78 348.6 286.57 333.49 287.08 327.6C287.08 327.6 291.54 261.29 264.15 237.67C264.15 237.67 249.53 225.22 221.75 221.29L222.24 227.09Z" fill="#4A4A4A"/>
<path d="M219.9 265.55C208.74 253.7 184.33 249.12 160.79 245.77H160.56H160.32C136.79 242.48 110.27 241.32 99.1099 250.02C84.3499 261.46 81.0299 305.62 83.9499 333.86C79.8899 340.49 84.5699 345.51 87.6399 350.08C99.5399 367.78 220.51 382.81 233.21 370.63C245.6 368.95 241.57 358.63 239.48 353.74C243.51 326.65 234.51 281.09 219.9 265.55Z" fill="white"/>
<path d="M83.87 333.54C83.87 333.54 108.48 349.33 149.87 353.12C191.26 356.91 215.87 361.27 237.71 355.01C259.55 348.75 286.71 328.95 286.71 328.95C286.71 328.95 294.47 337.27 285.9 345.79C277.33 354.31 250.99 371.72 223.27 374.15C205.27 375.74 140.27 370.15 119.68 364.07C99.09 357.99 77.11 353.75 83.87 333.54Z" fill="#F7F7F7"/>
<path opacity="0.04" d="M238.91 371.26C222.25 379.65 99.5501 367.77 87.6501 350.06C84.5701 345.5 79.8901 340.47 83.9601 333.84C80.8201 305.4 83.4801 265.78 98.2301 254.26C112.92 242.05 159.91 250.69 159.91 250.69C174.05 252.77 187.929 256.35 201.31 261.37C213.8 266.12 222.03 276.51 225.73 289.37C230.73 306.51 234.48 332.19 234.92 352.23C234.929 353.087 235.206 353.92 235.711 354.612C236.217 355.304 236.926 355.821 237.74 356.09C238.917 356.403 239.98 357.044 240.807 357.938C241.634 358.832 242.19 359.942 242.41 361.14C242.94 363.77 243.27 368.43 238.92 371.31" fill="#4A4A4A"/>
<path opacity="0.6" d="M91.3301 260.11C91.3301 260.11 99.8101 311.11 117.17 346.76L157.17 354.04L125.57 243.25C125.57 243.25 102.44 240.15 91.3301 260.11Z" fill="white"/>
<path opacity="0.6" d="M178.52 248.75C178.52 248.75 192.28 321.13 209.65 356.86L242.1 354.66C242.1 354.66 236.05 286.41 222.37 268.34C216.77 259.2 198.13 252.36 178.52 248.75Z" fill="white"/>
<path d="M153.1 244.77C155.5 245.05 157.91 245.38 160.32 245.7H160.56H160.79C184.33 249.06 209.62 254.51 220.79 266.36C232.29 278.58 238.3 314.21 240.28 346.15" stroke="#4A4A4A" stroke-width="2" stroke-linecap="round" stroke-linejoin="round"/>
<path d="M132 243.26C133 243.26 134.1 243.26 135.15 243.33" stroke="#4A4A4A" stroke-width="2" stroke-linecap="round" stroke-linejoin="round"/>
<path d="M245.55 254.32C247.66 253.21 249.43 254.69 250.42 256.2C252.57 259.599 254.369 263.208 255.79 266.97" stroke="#4A4A4A" stroke-width="2" stroke-linecap="round" stroke-linejoin="round"/>
<path d="M261.46 286.38C263.317 294.995 264.653 303.714 265.46 312.49C265.71 315.17 265.92 317.24 266.07 319.85C266.106 320.432 265.993 321.014 265.74 321.54C265.493 322.064 265.118 322.518 264.65 322.86H264.59" stroke="#4A4A4A" stroke-width="2" stroke-linecap="round" stroke-linejoin="round"/>
<path d="M86.04 334.96C109.65 352.1 215.25 364.37 241.81 353.64" stroke="#4A4A4A" stroke-width="2" stroke-linecap="round" stroke-linejoin="round"/>
<path d="M109.16 241.63C98.94 249.35 96.24 252.63 96.24 252.63C82.96 267.12 82.41 304.02 83.87 333.51C80.02 340.8 82.79 350.34 92.02 354.98C118.16 368.17 209.84 382.14 243.51 369.84C264.42 362.21 282.72 349.24 285.41 346.42C290.94 341.02 289.83 333.15 287.41 329.11C287.128 328.638 287.011 328.085 287.08 327.54C290.5 299.68 280.63 254.9 266.29 239.67C255.14 227.83 231.7 222.37 208.17 219.02H207.93H207.69C190.83 216.66 174.02 215.4 161.69 218.02C141.93 221.85 113.92 236.23 98.95 249.92" stroke="#4A4A4A" stroke-width="2" stroke-linecap="round" stroke-linejoin="round"/>
<path d="M247.71 350.86C257.6 346.43 274.61 338.62 284.5 330.41" stroke="#4A4A4A" stroke-width="2" stroke-linecap="round" stroke-linejoin="round"/>
<path opacity="0.06" d="M269.57 268.31C269.57 268.31 271.17 274.2 267.46 283.56C265.53 288.47 256.22 291.56 254.18 292.15C252.68 292.439 251.126 292.131 249.849 291.293C248.572 290.455 247.672 289.151 247.34 287.66C246.84 286.76 246.92 279.36 247 275.66C247.005 275.097 247.196 274.551 247.543 274.108C247.89 273.665 248.375 273.349 248.92 273.21C253.93 272.09 267.45 268.96 269.57 268.31Z" fill="#4A4A4A"/>
<path d="M249.1 281.36C248.57 280.96 248.27 273.9 248.94 273.53L262.38 266.16C263.74 265.42 267.09 265.41 269.12 266.16L270.22 266.56C273.1 267.56 274.73 268.89 274.99 270.14L274.7 277.14" fill="#F7F7F7"/>
<path d="M272.43 279.7L270.32 280.86C266.87 282.75 260.88 283.49 253.86 282.66L252.36 282.48C249.59 282.15 248.2 281.09 249.56 280.35L262.38 272.98C263.74 272.24 267.09 272.23 269.12 272.98L270.22 273.38C275.35 275.22 275.89 277.86 272.43 279.7Z" fill="#DEDEDE"/>
<path d="M251.1 282.24C250.569 282.098 250.093 281.802 249.73 281.39C249.372 280.973 249.14 280.463 249.06 279.92C248.89 278.65 248.73 276.85 248.61 275.41C248.487 274.969 248.519 274.498 248.701 274.078C248.883 273.657 249.204 273.312 249.61 273.1L262.41 266.18C263.77 265.43 267.12 265.42 269.15 266.18L270.25 266.58C273.13 267.58 274.76 268.9 275.02 270.15L274.65 276.86C273.93 278.63 271.05 280.28 269.65 281.12C266.26 283.12 260.93 283.44 253.91 282.61L252.41 282.44C251.969 282.406 251.531 282.34 251.1 282.24Z" fill="#F7F7F7"/>
<path d="M248.97 274.4C248.97 274.4 255.3 277.4 264.53 275.93C269.35 275.18 271.8 273.59 273.04 272.25C273.596 271.653 273.9 270.865 273.89 270.05C273.882 269.233 273.551 268.453 272.97 267.88C271.578 266.609 269.765 265.897 267.88 265.88C262.45 265.52 261.55 266.15 261.55 266.15C261.55 266.15 250.24 272.05 248.97 274.4Z" fill="white"/>
<path d="M271.2 273.3C269.974 274.274 268.567 274.995 267.06 275.42C265.537 275.742 263.993 275.959 262.44 276.07" stroke="#4A4A4A" stroke-width="2" stroke-linecap="round" stroke-linejoin="round"/>
<path d="M251.1 282.24C250.569 282.098 250.093 281.802 249.73 281.39C249.372 280.973 249.14 280.463 249.06 279.92C248.89 278.65 248.73 276.85 248.61 275.41C248.487 274.969 248.519 274.498 248.701 274.078C248.883 273.657 249.204 273.312 249.61 273.1L262.41 266.18C263.77 265.43 267.12 265.42 269.15 266.18L270.25 266.58C270.86 266.81 271.48 267.05 271.96 267.29C272.895 267.757 273.672 268.488 274.195 269.393C274.718 270.298 274.963 271.337 274.9 272.38L274.74 275.38C274.7 276.095 274.512 276.793 274.189 277.432C273.865 278.07 273.413 278.635 272.86 279.09C271.838 279.88 270.759 280.592 269.63 281.22C266.24 283.22 260.91 283.54 253.89 282.71L252.39 282.53C251.964 282.477 251.543 282.394 251.13 282.28L251.1 282.24Z" stroke="#4A4A4A" stroke-width="2" stroke-linecap="round" stroke-linejoin="round"/>
<path d="M217.22 243.16C194.96 238.07 149.56 232.39 140.12 232.16C136.12 232.06 144.43 225.71 155.96 225.76C163.05 225.76 211.58 230.93 229.48 237.05C235.44 238.77 226.74 244.66 217.22 243.16Z" fill="#E6E6E6"/>
<path d="M222.24 227.09C222.24 227.09 221.66 220.28 221.66 218.61C227.66 209.91 223.91 203.4 221.56 200.98C212.64 191.85 181.83 186.77 166.12 189.31C162.5 189.97 149.12 198.31 147.12 202.09C143.96 204.77 160.42 211.73 160.42 211.73L164.29 214.8L167.19 229.67L206.1 224.92L206.79 241.5C206.79 241.5 214.86 244.14 217.24 243.16C219.33 244.05 223.67 243.25 223.67 243.25C223.67 243.25 223.31 235.64 222.79 233.83C222.395 231.606 222.211 229.349 222.24 227.09Z" fill="white"/>
<path d="M147.73 201.86C149.09 199.44 156 194.43 163.24 190.81" stroke="#4A4A4A" stroke-width="2" stroke-linecap="round" stroke-linejoin="round"/>
<path d="M207.49 239.86L205.7 231.2C205.7 231.2 208.21 219.6 208.24 218.14C208.34 213.95 208.16 212.76 205.81 210.33C194.81 198.96 157.29 192.98 146.95 202.33C145.1 204.01 145.18 214.56 151.95 224.06L152.16 233.06L207.49 239.86Z" fill="#F7F7F7"/>
<path d="M207.23 237.98C207.14 237.27 206.45 231.18 206.42 226.54C206.411 225.169 206.673 223.81 207.19 222.54C208.361 220.062 208.62 217.25 207.92 214.6C207.337 212.237 206.091 210.09 204.33 208.41C203.348 207.503 202.235 206.748 201.03 206.17C195.244 203.34 189.112 201.282 182.79 200.05" stroke="#4A4A4A" stroke-width="2" stroke-linecap="round" stroke-linejoin="round"/>
<path d="M222.83 240.15C222.74 239.44 221.75 224.54 221.72 219.9C221.72 218.52 223.1 215.48 223.63 214.21C224.801 211.732 225.06 208.92 224.36 206.27C223.783 203.904 222.54 201.753 220.78 200.07C219.797 199.163 218.685 198.408 217.48 197.83C211.698 194.987 205.564 192.923 199.24 191.69C199.24 191.69 174.65 185.03 163.65 190.58" stroke="#4A4A4A" stroke-width="2" stroke-linecap="round" stroke-linejoin="round"/>
<path d="M164.85 197.86C160.346 197.61 155.831 198.09 151.48 199.28C149.912 199.785 148.521 200.73 147.475 202.003C146.429 203.276 145.771 204.823 145.58 206.46C145.592 211.733 147.3 216.862 150.45 221.09C151.5 222.487 152.187 224.122 152.45 225.85C152.45 225.85 152.53 229.71 152.58 230.07" stroke="#4A4A4A" stroke-width="2" stroke-linecap="round" stroke-linejoin="round"/>
<path d="M175.45 198.86L174.19 198.6" stroke="#4A4A4A" stroke-width="2" stroke-linecap="round" stroke-linejoin="round"/>
<path d="M223.29 235.06C225.09 235.54 228.04 236.54 229.48 237.06C235.48 238.8 226.74 244.69 217.22 243.2C194.96 238.1 149.56 232.42 140.12 232.2C136.93 232.12 141.53 228.09 149.35 226.47" stroke="#4A4A4A" stroke-width="2" stroke-linecap="round" stroke-linejoin="round"/>
<path opacity="0.06" d="M288.17 335.03C288.17 335.03 287.73 340.27 280.5 345.3C273.27 350.33 252.5 364.52 237.14 367.8C221.78 371.08 160.69 370.42 123.01 360.59C85.33 350.76 82.27 342.86 82.27 342.86C82.27 342.86 84.46 355.09 106.15 360.34C127.84 365.59 168.07 375.68 205.34 374.34C242.61 373 241.91 370.72 241.91 370.72C241.91 370.72 282.11 353.87 288.39 341.62C289.37 336.46 288.17 335.03 288.17 335.03Z" fill="#4A4A4A"/>
<path opacity="0.9" d="M251.682 337.48C253.783 337.355 255.357 335.1 255.199 332.442C255.041 329.785 253.209 327.732 251.109 327.857C249.008 327.983 247.434 330.238 247.592 332.896C247.751 335.553 249.582 337.606 251.682 337.48Z" fill="#FF0083"/>
<path opacity="0.08" d="M251.81 328.29C252.809 329.473 253.447 330.918 253.648 332.454C253.848 333.989 253.602 335.55 252.94 336.95C252.94 336.95 259.35 332.13 251.81 328.29Z" fill="#B40060"/>
<path d="M256.12 332.48C256.12 336.15 253.74 337.39 251.64 337.48C249.54 337.57 248.32 335.33 248.16 332.68C248 330.03 248.96 327.99 251.06 327.87C251.7 327.815 252.346 327.893 252.955 328.099C253.563 328.305 254.123 328.635 254.598 329.068C255.074 329.501 255.454 330.028 255.716 330.615C255.978 331.202 256.115 331.837 256.12 332.48V332.48Z" stroke="#DC0071" stroke-width="2" stroke-linecap="round" stroke-linejoin="round"/>
<path opacity="0.04" d="M258.65 268.18L262.94 269.33C263.837 269.572 264.716 269.876 265.57 270.24C267.73 271.17 271.21 272.56 271.23 274.16L271.31 280.3C271.31 280.3 276.63 276.54 274.97 270.14C274.99 270.14 266.11 261.99 258.65 268.18Z" fill="#4A4A4A"/>
<path opacity="0.04" d="M217.48 197.86C217.48 197.86 196.81 189.12 174.19 188.43C174.19 188.43 200.68 193.49 212.92 200.67C214.607 201.692 215.896 203.258 216.574 205.11C217.252 206.962 217.278 208.99 216.65 210.86C215.781 213.921 215.579 217.134 216.06 220.28L216.52 229.14C216.587 230.423 216.214 231.69 215.463 232.732C214.712 233.773 213.628 234.528 212.39 234.87C210.09 235.5 208 235.93 207.05 236.12L206.71 224.12C206.71 224.12 212 210.44 201.05 206.12L185.29 200.53C185.29 200.53 201.48 210.98 201.04 217.05C200.318 221.643 200.157 226.308 200.56 230.94C200.616 231.468 200.554 232.001 200.378 232.502C200.202 233.003 199.916 233.458 199.541 233.833C199.166 234.209 198.712 234.496 198.212 234.674C197.711 234.852 197.178 234.915 196.65 234.86C185.55 233.7 169.16 229.56 153.11 228.48C153.36 230.59 151.57 231.12 152.21 233.2L206.78 241.54L217.2 242.62V243.21L223.63 243.29L221.63 218.65C221.63 218.65 231.36 203.76 217.48 197.86Z" fill="#4A4A4A"/>
<path opacity="0.04" d="M250.34 339.67C253.322 339.67 255.74 337.033 255.74 333.78C255.74 330.527 253.322 327.89 250.34 327.89C247.358 327.89 244.94 330.527 244.94 333.78C244.94 337.033 247.358 339.67 250.34 339.67Z" fill="#4A4A4A"/>
<path opacity="0.06" d="M549.1 435.59C612.988 435.59 664.78 423.282 664.78 408.1C664.78 392.918 612.988 380.61 549.1 380.61C485.212 380.61 433.42 392.918 433.42 408.1C433.42 423.282 485.212 435.59 549.1 435.59Z" fill="#4A4A4A"/>
<path d="M508.79 408.41C508.79 418.19 541.27 426.13 581.34 426.13C621.41 426.13 653.88 418.19 653.88 408.41V397.41H508.79V408.41Z" fill="#ECECEC"/>
<path d="M581.34 355.48C519.81 355.48 469.57 340.72 462.56 326.15C463.82 336.15 473 371.78 480.83 380.94C497.65 400.61 525.83 410.86 581.34 410.86C636.85 410.86 665.04 400.58 681.85 380.91C689.68 371.75 697.53 336.67 700.14 326.12C693.13 340.72 642.87 355.48 581.34 355.48Z" fill="white"/>
<path d="M515.44 402.93C516.29 403.2 517.14 403.47 518.01 403.73" stroke="#4A4A4A" stroke-width="2" stroke-linecap="round" stroke-linejoin="round"/>
<path d="M700.14 327.86C700.14 345 647.66 358.86 581.34 358.86C515.02 358.86 462.56 344.96 462.56 327.86C462.56 310.76 515.02 296.86 581.34 296.86C647.66 296.86 700.14 310.71 700.14 327.86Z" fill="#F7F7F7"/>
<path d="M528.73 299.77C501.9 302.97 480.67 308.54 469.62 315.37C466.826 317.126 464.666 319.727 463.452 322.795C462.238 325.863 462.034 329.238 462.87 332.43L465 340.72" stroke="#4A4A4A" stroke-width="2" stroke-linecap="round" stroke-linejoin="round"/>
<path d="M698.55 337.5L699.84 332.39C700.659 329.206 700.446 325.843 699.231 322.788C698.016 319.733 695.862 317.142 693.08 315.39C675.51 304.51 632.08 296.82 581.34 296.82" stroke="#4A4A4A" stroke-width="2" stroke-linecap="round" stroke-linejoin="round"/>
<path d="M585.21 281.56C582.21 279.66 578.35 277.8 576.91 274.73C576.476 273.821 575.992 272.936 575.46 272.08C569.09 261.92 558.19 256.76 547.13 261.31C533.75 266.82 530.07 281.39 536.36 294.21C538.06 297.66 536.97 302.45 536.73 306.29C536.426 311.128 537.239 315.971 539.105 320.445C540.97 324.919 543.839 328.905 547.49 332.094C551.141 335.283 555.477 337.59 560.161 338.837C564.845 340.084 569.754 340.238 574.507 339.286C579.26 338.334 583.731 336.303 587.574 333.349C591.418 330.394 594.531 326.596 596.673 322.248C598.815 317.899 599.928 313.116 599.928 308.268C599.927 303.421 598.813 298.638 596.67 294.29" fill="#ECECEC"/>
<path d="M585.21 281.56C582.21 279.66 578.35 277.8 576.91 274.73C576.476 273.821 575.992 272.936 575.46 272.08C569.09 261.92 558.19 256.76 547.13 261.31C533.75 266.82 530.07 281.39 536.36 294.21C538.06 297.66 536.97 302.45 536.73 306.29C536.426 311.128 537.239 315.971 539.105 320.445C540.97 324.919 543.839 328.905 547.49 332.094C551.141 335.283 555.477 337.59 560.161 338.837C564.845 340.084 569.754 340.238 574.507 339.286C579.26 338.334 583.731 336.303 587.574 333.349C591.418 330.394 594.531 326.596 596.673 322.248C598.815 317.899 599.928 313.116 599.928 308.268C599.927 303.421 598.813 298.638 596.67 294.29" stroke="#4A4A4A" stroke-width="2" stroke-linecap="round" stroke-linejoin="round"/>
<path opacity="0.05" d="M542.42 263.86C542.42 263.86 543.21 271.86 552.87 265.03C552.87 265.03 566.07 269.65 569.63 278.03C571.128 281.771 573.493 285.102 576.53 287.75C578.611 289.549 580.884 291.112 583.31 292.41C584.118 292.808 584.839 293.363 585.43 294.044C586.02 294.724 586.468 295.516 586.748 296.372C587.027 297.229 587.133 298.133 587.057 299.03C586.982 299.928 586.728 300.802 586.31 301.6C585.656 302.808 585.075 304.053 584.57 305.33C583.996 306.821 582.91 308.058 581.506 308.82C580.102 309.583 578.473 309.82 576.91 309.49C572.152 308.403 567.223 308.29 562.42 309.16C559.463 309.735 556.399 309.212 553.8 307.69C550.245 305.631 546.417 304.086 542.43 303.1C542.43 303.1 551.84 311 551.98 316.71C551.98 316.71 563.9 318.42 569.19 315.21C569.19 315.21 584.88 313.84 586.69 318.99C586.69 318.99 591.54 301.83 596.56 300.09C596.56 300.09 600.06 287.18 587.93 283.2C575.8 279.22 578.42 276.79 578.42 276.79C578.42 276.79 568.16 249.86 542.42 263.86Z" fill="#4A4A4A"/>
<path d="M545.84 267.63C545.84 267.63 549.68 266.87 551.09 265.06Z" fill="#DEDEDE"/>
<path d="M545.84 267.63C545.84 267.63 549.68 266.87 551.09 265.06" stroke="#4A4A4A" stroke-width="2" stroke-linecap="round" stroke-linejoin="round"/>
<path d="M546.27 253.68C546.27 253.68 544.27 258.19 548.56 266.54" stroke="#4A4A4A" stroke-width="2" stroke-linecap="round" stroke-linejoin="round"/>
<path d="M638.65 294.7C645.52 289.07 654.65 284.7 665.65 285C667.57 285.06 669.01 281.11 672.77 282.67C676.53 284.23 674.77 288.02 676.27 289.29C691.82 302.82 689.08 326.87 685.19 336.19C680.9 346.47 664.08 349.19 647.62 342.37C631.16 335.55 621.29 321.6 625.62 311.37" fill="#F7F7F7"/>
<path d="M638.65 294.7C645.52 289.07 654.65 284.7 665.65 285C667.57 285.06 669.01 281.11 672.77 282.67C676.53 284.23 674.77 288.02 676.27 289.29C691.82 302.82 689.08 326.87 685.19 336.19C680.9 346.47 664.08 349.19 647.62 342.37C631.16 335.55 621.29 321.6 625.62 311.37" stroke="#4A4A4A" stroke-width="2" stroke-linecap="round" stroke-linejoin="round"/>
<path d="M665.71 285.01L668.51 285.6" stroke="#4A4A4A" stroke-width="2" stroke-linecap="round" stroke-linejoin="round"/>
<path d="M517.39 301.29H517.86C520.34 301.03 522.74 299.96 525.19 299.5C534.12 297.82 543.27 302.59 548.54 309.7C553.65 316.6 555.62 325.7 555.2 334.16C555.12 335.67 554.97 337.16 554.75 338.64L478.51 337.27C477.779 331.866 478.101 326.371 479.46 321.09C482.26 310.48 491.38 300.09 503.13 300.15C505.225 300.206 507.31 300.454 509.36 300.89C510.716 301.26 512.115 301.448 513.52 301.45" fill="#F7F7F7"/>
<path d="M478.2 329.13C478.363 326.429 478.785 323.75 479.46 321.13C482.26 310.52 491.38 300.13 503.13 300.19C505.225 300.246 507.31 300.494 509.36 300.93C510.716 301.3 512.115 301.488 513.52 301.49" stroke="#4A4A4A" stroke-width="2" stroke-linecap="round" stroke-linejoin="round"/>
<path d="M555.85 332.5C555.85 354.13 541 362.73 515.18 351.25C493.56 351.25 477.53 354.13 477.53 332.5C477.53 310.87 492.18 295.13 516.31 296.37C539.84 294.73 555.85 310.86 555.85 332.5Z" fill="#F7F7F7"/>
<path d="M477.53 332.5C477.53 311.85 493.08 294.93 513.74 296.5C515.704 296.64 517.676 296.64 519.64 296.5C533.19 295.5 544.64 302.5 550.8 313.24" stroke="#4A4A4A" stroke-width="2" stroke-linecap="round" stroke-linejoin="round"/>
<path d="M560.7 317.21H561.21C563.9 316.93 566.51 315.77 569.21 315.21C578.92 313.39 588.86 318.58 594.59 326.31C600.15 333.81 602.3 343.68 601.84 352.9C601.75 354.54 601.59 356.17 601.35 357.77L518.46 356.28C517.651 350.407 517.99 344.433 519.46 338.69C522.46 327.15 532.41 315.88 545.19 315.93C547.467 315.985 549.733 316.253 551.96 316.73C553.437 317.129 554.96 317.331 556.49 317.33" fill="#F7F7F7"/>
<path d="M556.5 317.36C556.5 317.36 560.82 317.76 567.82 315.69C569.361 315.218 570.959 314.952 572.57 314.9C581.15 314.68 589.5 319.52 594.57 326.36C600.13 333.85 602.28 343.73 601.82 352.94" stroke="#4A4A4A" stroke-width="2" stroke-linecap="round" stroke-linejoin="round"/>
<path d="M518.09 347.47C518.271 344.517 518.73 341.587 519.46 338.72C522.46 327.18 532.46 315.91 545.2 315.96C547.476 316.015 549.743 316.283 551.97 316.76C553.447 317.159 554.97 317.361 556.5 317.36" stroke="#4A4A4A" stroke-width="2" stroke-linecap="round" stroke-linejoin="round"/>
<path d="M554.36 323.67C555.575 324.182 556.902 324.37 558.211 324.216C559.52 324.062 560.767 323.57 561.83 322.79" stroke="#4A4A4A" stroke-width="2" stroke-linecap="round" stroke-linejoin="round"/>
<path d="M629.47 297.86L629.91 297.94C632.24 298.23 634.67 297.75 637.03 297.84C645.59 298.17 653.03 304.47 656.36 312.12C659.62 319.54 659.53 328.31 657.36 336.02C652.97 351.56 640.43 363.02 628.36 362.54C622.69 362.31 619.6 359.66 616.36 359.05C613.12 358.44 609.05 359.78 603.67 357.95C592.25 354.09 584.67 338.95 586.15 322.79C586.61 317.666 588.06 312.681 590.42 308.11C595.22 298.93 605.79 291.31 616.59 293.82C618.508 294.311 620.377 294.98 622.17 295.82C623.339 296.444 624.587 296.908 625.88 297.2" fill="white"/>
<path d="M630.78 298.04C632.84 298.14 634.96 297.78 637.03 297.86C645.59 298.19 653.03 304.5 656.36 312.15C659.61 319.56 659.52 328.33 657.36 336.04C652.97 351.59 640.42 363.04 628.36 362.56C622.69 362.33 619.59 359.68 616.36 359.07C613.13 358.46 609.04 359.8 603.67 357.97C596.67 355.58 591.08 348.92 588.17 340.4" stroke="#4A4A4A" stroke-width="2" stroke-linecap="round" stroke-linejoin="round"/>
<path d="M586.97 336.06C586.91 335.8 586.85 335.53 586.8 335.26" stroke="#4A4A4A" stroke-width="2" stroke-linecap="round" stroke-linejoin="round"/>
<path d="M586.19 330.98C585.93 328.259 585.93 325.52 586.19 322.8C586.65 317.676 588.1 312.691 590.46 308.12C595.26 298.94 605.82 291.32 616.63 293.83" stroke="#4A4A4A" stroke-width="2" stroke-linecap="round" stroke-linejoin="round"/>
<path d="M622.86 302.12C623.789 302.788 624.876 303.202 626.014 303.323C627.151 303.444 628.301 303.267 629.35 302.81" stroke="#4A4A4A" stroke-width="2" stroke-linecap="round" stroke-linejoin="round"/>
<path opacity="0.05" d="M625.33 296.65C625.33 296.65 625.33 306.7 638.12 308.46C649.18 309.98 650.37 322.07 646.8 334.13C646.233 336.081 645.162 337.848 643.694 339.252C642.226 340.657 640.414 341.65 638.44 342.13C624.75 345.43 597.86 345.75 590.72 343.2C584.41 343.2 606.57 363.65 601.87 357.03C611.21 360.66 615.56 359.43 615.56 359.43C615.56 359.43 624.37 363.14 627.87 363.63C630.87 364.05 652.3 358.83 657.93 330.63C661.5 312.79 652.63 304.46 645.48 300.73C642.086 298.976 638.297 298.129 634.48 298.27C631.352 298.351 628.24 297.8 625.33 296.65V296.65Z" fill="#4A4A4A"/>
<path d="M472.94 327.57C472.94 340.57 521.47 351.07 581.34 351.07C641.21 351.07 691.34 340.37 691.34 327.4L698.55 327.85L689.74 350.44C689.74 350.44 600.2 382.75 599.65 383.86C599.1 384.97 498.47 381.94 498.47 381.94L472.94 355.86L469.84 340.75L472.94 327.57Z" fill="white"/>
<path d="M581.34 358.86C635.34 358.86 680.25 349.63 695 336.93L698.55 327.86L691.34 327.41C691.34 340.41 641.21 351.08 581.34 351.08C521.47 351.08 472.94 340.56 472.94 327.58L470.26 338.94C487.16 350.6 530.11 358.86 581.34 358.86Z" fill="#F7F7F7"/>
<path d="M691.34 327.4C691.34 340.57 642.09 351.24 581.34 351.24C520.59 351.24 471.34 340.57 471.34 327.4" stroke="#4A4A4A" stroke-width="2" stroke-linecap="round" stroke-linejoin="round"/>
<path d="M583.3 287.29C587.22 292.68 600.3 308.49 614.39 300.13C616.025 299.195 617.431 297.907 618.505 296.36C619.579 294.813 620.295 293.046 620.6 291.187C620.904 289.329 620.79 287.425 620.266 285.616C619.742 283.807 618.821 282.138 617.57 280.73C616.058 279.017 614.274 277.564 612.29 276.43C609.625 274.982 606.593 274.349 603.571 274.608C600.549 274.868 597.669 276.009 595.29 277.89C590.29 283.12 586.29 284.8 584.05 285.33C583.846 285.373 583.656 285.467 583.497 285.603C583.339 285.738 583.216 285.911 583.142 286.106C583.067 286.301 583.043 286.511 583.07 286.718C583.098 286.925 583.177 287.121 583.3 287.29V287.29Z" fill="#F6F6F6"/>
<path d="M626.11 303.15C626.11 293.75 615.8 289.05 609.97 288.69" stroke="#4A4A4A" stroke-width="2" stroke-linecap="round" stroke-linejoin="round"/>
<path d="M620.76 288.86C620.699 285.868 619.567 282.998 617.57 280.77C616.058 279.057 614.274 277.604 612.29 276.47C608.837 274.539 604.761 274.05 600.95 275.11C598.347 275.849 595.969 277.223 594.03 279.11C589.6 283.38 586.03 284.83 584.03 285.32C583.822 285.364 583.628 285.461 583.468 285.601C583.307 285.741 583.185 285.919 583.113 286.119C583.041 286.32 583.021 286.535 583.056 286.745C583.09 286.955 583.178 287.153 583.31 287.32C587.25 292.74 600.52 308.73 614.68 299.99C616.279 299.021 617.645 297.713 618.682 296.158C619.719 294.602 620.401 292.838 620.68 290.99" stroke="#4A4A4A" stroke-width="2" stroke-linecap="round" stroke-linejoin="round"/>
<path opacity="0.08" d="M584.65 289.02C584.65 289.02 593.65 287.61 597.71 281.93C598.606 280.662 599.831 279.664 601.254 279.044C602.676 278.423 604.242 278.204 605.78 278.41C608.838 278.951 611.642 280.458 613.78 282.71C613.78 282.71 623.29 292.46 611.14 301.71C611.14 301.71 633.04 290.9 610.65 275.71C610.65 275.71 602.76 270.77 594.01 279.25C594.01 279.25 585.87 286.7 583.29 285.96C583.507 287.069 583.972 288.115 584.65 289.02V289.02Z" fill="#4A4A4A"/>
<path opacity="0.05" d="M649.56 303.31C663.89 307.26 665.76 321.13 665.56 329.44C665.54 330.193 665.702 330.94 666.034 331.616C666.365 332.293 666.856 332.878 667.463 333.324C668.071 333.769 668.777 334.061 669.522 334.173C670.267 334.286 671.028 334.216 671.74 333.97C673.74 333.28 675.4 332.6 676.62 332.06C677.33 331.743 677.949 331.255 678.422 330.638C678.896 330.022 679.207 329.297 679.33 328.53C685.33 291.04 658.79 285.6 658.79 285.6L666.46 285C666.46 285 673.55 276.44 675.9 288.53C675.9 288.53 694.38 301.83 686.04 334.16C676.357 340.512 665.218 344.298 653.67 345.16C653.67 345.16 668.65 318.77 649.56 303.31Z" fill="#4A4A4A"/>
<path opacity="0.05" d="M542.42 316.13C542.42 316.13 549.42 330.98 568.66 320.29C570.175 319.427 571.943 319.119 573.66 319.42C574.361 319.544 575.055 319.704 575.74 319.9C577.035 320.279 578.154 321.104 578.897 322.231C579.641 323.357 579.961 324.71 579.8 326.05C579.243 330.618 579.102 335.227 579.38 339.82C579.6 342.61 576.45 346.31 573.65 346.14L529.84 342.14C528.632 342.068 527.469 341.654 526.488 340.946C525.507 340.237 524.748 339.264 524.3 338.14C523.35 335.8 522.5 332.75 523.06 330.14C523.06 330.14 518.31 342.14 518.77 346.77C518.77 346.77 576.93 354.19 594.05 351.09C594.05 351.09 583.76 341.25 585.97 318.6C585.97 318.6 573.91 311.33 562.2 317.92C562.21 317.91 543.88 315.86 542.42 316.13Z" fill="#4A4A4A"/>
<path opacity="0.05" d="M504.48 297.35C504.48 297.35 523.04 299.47 533.02 305.44C533.631 305.811 534.127 306.343 534.455 306.977C534.783 307.612 534.928 308.325 534.877 309.038C534.825 309.75 534.578 310.435 534.162 311.016C533.746 311.597 533.178 312.051 532.52 312.33C526.3 315.04 516.86 321.03 513.52 333.18C513.146 334.591 512.27 335.817 511.057 336.629C509.844 337.44 508.377 337.782 506.93 337.59C497.01 336.32 477.55 332.28 479.15 320.12L477.01 335.45L496.59 343.15L518.82 346.76C518.82 346.76 520.82 312.1 552.01 316.76C552.01 316.76 543.67 293.88 518.13 297.35H504.48Z" fill="#4A4A4A"/>
<path opacity="0.04" d="M528.73 348.72C528.73 348.72 625.33 363.96 674.01 353.25C675.301 352.959 676.647 353.027 677.903 353.447C679.158 353.866 680.275 354.62 681.133 355.628C681.991 356.636 682.556 357.859 682.769 359.166C682.982 360.472 682.833 361.812 682.34 363.04L681.8 364.36C678.992 371.3 674.032 377.157 667.65 381.07C647.53 393.38 598.82 417.01 533.37 407.32C533.37 407.32 664.85 427.86 686.75 372.16L695.43 349.47L700.14 327.85C700.14 327.85 699.14 317.85 688.14 312.29L688.25 323.87C687.37 332.87 687.01 336.34 674.25 339.94C650.65 346.59 596.81 356.11 528.73 348.72Z" fill="#4A4A4A"/>
<path opacity="0.04" d="M518.78 403.95C518.78 403.95 582.26 421.67 626.98 415.75C627.605 415.67 628.24 415.736 628.835 415.943C629.43 416.151 629.969 416.493 630.409 416.944C630.849 417.395 631.178 417.941 631.371 418.541C631.564 419.141 631.615 419.777 631.52 420.4L631.39 421.24C631.39 421.24 653.18 415.91 653.88 408.41L654.58 400.9C654.58 400.9 619.23 421.86 518.78 403.95Z" fill="#4A4A4A"/>
<path d="M465 340.72C465 340.72 471.38 369.89 480.83 380.94C487.55 388.81 496.09 395.17 507.47 399.94C507.863 400.106 508.198 400.384 508.433 400.74C508.668 401.096 508.792 401.514 508.79 401.94V408.4C508.79 418.18 541.27 426.12 581.34 426.12C621.41 426.12 653.88 418.18 653.88 408.4V400.51" stroke="#4A4A4A" stroke-width="2" stroke-linecap="round" stroke-linejoin="round"/>
<path d="M528.09 406.29C542.34 409.34 559.78 410.89 581.34 410.89C636.85 410.89 665.04 400.61 681.85 380.94C691.3 369.89 698.55 337.5 698.55 337.5" stroke="#4A4A4A" stroke-width="2" stroke-linecap="round" stroke-linejoin="round"/>
<path d="M572.95 165.64C572.694 165.649 572.443 165.574 572.234 165.427C572.025 165.279 571.87 165.067 571.792 164.824C571.715 164.58 571.72 164.317 571.807 164.076C571.893 163.835 572.056 163.629 572.27 163.49C574.673 162.043 576.72 160.074 578.259 157.728C579.798 155.382 580.79 152.721 581.16 149.94C581.72 145.38 584.83 132.32 596.16 135.88C608.65 138.73 612.02 163.63 572.95 165.64Z" fill="#FF0083"/>
<path d="M111.29 165.51C111.456 165.572 111.598 165.685 111.694 165.834C111.79 165.983 111.835 166.159 111.823 166.336C111.811 166.513 111.741 166.681 111.625 166.815C111.509 166.949 111.353 167.042 111.18 167.08C109.251 167.397 107.418 168.146 105.818 169.269C104.219 170.393 102.893 171.863 101.94 173.57C100.41 176.39 95.0399 184.05 88.6099 178.84C81.2599 173.79 85.4499 156.78 111.29 165.51Z" fill="#FF0083"/>
<path d="M614.06 197.78C613.439 197.399 612.971 196.813 612.735 196.124C612.5 195.434 612.513 194.684 612.771 194.003C613.029 193.322 613.517 192.752 614.15 192.392C614.783 192.032 615.522 191.904 616.24 192.03C628.58 194.25 646.24 194.96 664.46 187.3C668.71 185.5 675.72 182.09 683.02 180.03C701.1 174.95 709.65 201.81 691.95 208.03C685.18 210.255 678.153 211.6 671.04 212.03C655.78 213.28 634.79 210.2 614.06 197.78Z" fill="#EAEAEA"/>
<path d="M633.39 84.83C636.566 84.83 639.14 82.2556 639.14 79.08C639.14 75.9043 636.566 73.33 633.39 73.33C630.214 73.33 627.64 75.9043 627.64 79.08C627.64 82.2556 630.214 84.83 633.39 84.83Z" fill="#FD2D82"/>
<path d="M319.6 172.39C321.191 172.39 322.48 171.101 322.48 169.51C322.48 167.919 321.191 166.63 319.6 166.63C318.009 166.63 316.72 167.919 316.72 169.51C316.72 171.101 318.009 172.39 319.6 172.39Z" fill="#FD2D82"/>
<path d="M224.37 124.76C227.082 124.76 229.28 122.562 229.28 119.85C229.28 117.138 227.082 114.94 224.37 114.94C221.658 114.94 219.46 117.138 219.46 119.85C219.46 122.562 221.658 124.76 224.37 124.76Z" stroke="#FD2D82" stroke-miterlimit="10"/>
<path d="M556.79 5.38C558.276 5.38 559.48 4.17565 559.48 2.69C559.48 1.20435 558.276 0 556.79 0C555.304 0 554.1 1.20435 554.1 2.69C554.1 4.17565 555.304 5.38 556.79 5.38Z" fill="#EAEAEA"/>
<path d="M302.6 80.61C305.886 80.61 308.55 77.9461 308.55 74.66C308.55 71.3739 305.886 68.71 302.6 68.71C299.314 68.71 296.65 71.3739 296.65 74.66C296.65 77.9461 299.314 80.61 302.6 80.61Z" stroke="#EAEAEA" stroke-miterlimit="10"/>
<path d="M156.13 56.65L161.25 60.65C162.441 61.5833 163.815 62.2576 165.282 62.6295C166.749 63.0015 168.278 63.063 169.77 62.81L176.17 61.74C176.843 61.6242 177.536 61.7152 178.156 62.001C178.777 62.2867 179.296 62.7539 179.646 63.3408C179.996 63.9277 180.16 64.6068 180.116 65.2886C180.072 65.9704 179.822 66.6228 179.4 67.16L175.4 72.27C174.466 73.4633 173.792 74.8383 173.42 76.3071C173.048 77.7759 172.987 79.3061 173.24 80.8L174.31 87.2C174.423 87.8725 174.33 88.5636 174.044 89.1824C173.757 89.8011 173.29 90.3187 172.703 90.667C172.117 91.0154 171.439 91.1782 170.758 91.1341C170.078 91.09 169.426 90.8411 168.89 90.42L163.78 86.42C162.585 85.4891 161.21 84.8164 159.742 84.4446C158.273 84.0728 156.744 84.0099 155.25 84.26L148.85 85.33C148.178 85.4402 147.489 85.3457 146.871 85.0585C146.254 84.7714 145.737 84.305 145.389 83.7202C145.04 83.1353 144.876 82.459 144.917 81.7794C144.958 81.0998 145.203 80.4484 145.62 79.91L149.62 74.8C150.551 73.6055 151.224 72.2304 151.596 70.762C151.968 69.2935 152.031 67.7639 151.78 66.27L150.7 59.87C150.584 59.1957 150.676 58.5023 150.963 57.8814C151.25 57.2605 151.719 56.7413 152.307 56.3924C152.896 56.0435 153.576 55.8813 154.259 55.9273C154.941 55.9733 155.594 56.2253 156.13 56.65Z" fill="#EAEAEA"/>
</g>
<defs>
<clipPath id="clip0_1101_25062">
<rect width="837.3" height="435.59" fill="white"/>
</clipPath>
</defs>
</svg>
