<svg t="1739002206514" class="icon" viewBox="0 0 1024 1024" version="1.1" xmlns="http://www.w3.org/2000/svg" p-id="6746" width="200" height="200"><path d="M669.536 389.344A85.664 85.664 0 1 1 583.552 304h0.64a85.344 85.344 0 0 1 85.344 85.344z" fill="#FFC131" p-id="6747"></path><path d="M440.416 634.176m-85.344 0a85.344 85.344 0 1 0 170.688 0 85.344 85.344 0 1 0-170.688 0Z" fill="#24C8DB" p-id="6748"></path><path d="M761.312 663.392a332.416 332.416 0 0 1-112.64 45.888 231.36 231.36 0 0 0 11.232-103.328 229.44 229.44 0 1 0-261.824-351.04 385.056 385.056 0 0 0-125.152 36.576 326.4 326.4 0 1 1 488.384 371.904zM276.768 351.168l80 9.6a246.4 246.4 0 0 1 10.272-45.568 327.296 327.296 0 0 0-90.272 35.968z" fill="#FFC131" p-id="6749"></path><path d="M262.656 360.16a325.376 325.376 0 0 1 113.6-46.208 228.128 228.128 0 0 0-12.8 103.648 229.44 229.44 0 1 0 263.104 350.72 388.896 388.896 0 0 0 125.152-35.936A326.656 326.656 0 1 1 262.656 360.16zM747.168 672z" fill="#24C8DB" p-id="6750"></path></svg>